<?xml version="1.0" encoding="UTF-8" standalone="no"?>
<svg
   viewBox="0 0 28 27.984853"
   x="0px"
   y="0px"
   version="1.1"
   id="svg3"
   sodipodi:docname="search.svg"
   inkscape:version="1.3.2 (091e20e, 2023-11-25, custom)"
   width="28"
   height="27.984854"
   xmlns:inkscape="http://www.inkscape.org/namespaces/inkscape"
   xmlns:sodipodi="http://sodipodi.sourceforge.net/DTD/sodipodi-0.dtd"
   xmlns="http://www.w3.org/2000/svg"
   xmlns:svg="http://www.w3.org/2000/svg">
  <defs
     id="defs3" />
  <sodipodi:namedview
     id="namedview3"
     pagecolor="#ffffff"
     bordercolor="#000000"
     borderopacity="0.25"
     inkscape:showpageshadow="2"
     inkscape:pageopacity="0.0"
     inkscape:pagecheckerboard="0"
     inkscape:deskcolor="#d1d1d1"
     inkscape:zoom="3.18125"
     inkscape:cx="37.721022"
     inkscape:cy="78.742633"
     inkscape:window-width="1366"
     inkscape:window-height="705"
     inkscape:window-x="-8"
     inkscape:window-y="-8"
     inkscape:window-maximized="1"
     inkscape:current-layer="svg3" />
  <g
     id="g3"
     inkscape:export-filename="g3.svg"
     inkscape:export-xdpi="96"
     inkscape:export-ydpi="96"
     transform="translate(-2.0137157,-2.0192396)">
    <g
       data-name="Layer 9"
       id="g2">
      <path
         d="M 15.38,28 A 12,12 0 0 1 10,5.62 V 9 a 3,3 0 0 0 3,3 1,1 0 0 1 0,2 4,4 0 0 0 -1.22,7.8 0.79,0.79 0 0 0 0.3,0.05 1.0111874,1.0111874 0 0 0 0.3,-2 A 2,2 0 0 1 11,18 2,2 0 0 1 13,16 3,3 0 0 0 13,10 1,1 0 0 1 12,9 V 4.7 A 11.8,11.8 0 0 1 16,4 v 2 a 4,4 0 0 0 4,4 2,2 0 0 1 2,2 4,4 0 0 0 0.4,1.73 1,1 0 0 0 0.9,0.56 1,1 0 0 0 0.44,-0.1 A 1,1 0 0 0 24.2,12.85 2,2 0 0 1 24,12 4,4 0 0 0 20,8 2,2 0 0 1 18,6 V 4.18 A 12,12 0 0 1 27.82,14 h -1.18 a 1,1 0 0 0 0,2 H 28 a 11.81,11.81 0 0 1 -0.1,1.54 1.0084146,1.0084146 0 0 0 2,0.26 A 14,14 0 1 0 15.28,30 h 0.05 a 1.0003125,1.0003125 0 0 0 0.05,-2 z"
         id="path1" />
      <path
         d="M 26.27,24.86 A 5.9,5.9 0 0 0 27,22 6,6 0 1 0 25,26.44 l 3.27,3.27 a 1.0040916,1.0040916 0 0 0 1.42,-1.42 z M 21,26 a 4,4 0 1 1 4,-4 4,4 0 0 1 -4,4 z"
         id="path2" />
    </g>
  </g>
</svg>
