<?xml version="1.0" encoding="UTF-8" standalone="no"?>
<svg
   version="1.1"
   x="0px"
   y="0px"
   viewBox="0 0 100 125"
   style="enable-background:new 0 0 100 100;"
   xml:space="preserve"
   id="svg5"
   sodipodi:docname="skyguard.svg"
   inkscape:version="1.3.2 (091e20e, 2023-11-25, custom)"
   xmlns:inkscape="http://www.inkscape.org/namespaces/inkscape"
   xmlns:sodipodi="http://sodipodi.sourceforge.net/DTD/sodipodi-0.dtd"
   xmlns="http://www.w3.org/2000/svg"
   xmlns:svg="http://www.w3.org/2000/svg"><defs
     id="defs5" /><sodipodi:namedview
     id="namedview5"
     pagecolor="#ffffff"
     bordercolor="#000000"
     borderopacity="0.25"
     inkscape:showpageshadow="2"
     inkscape:pageopacity="0.0"
     inkscape:pagecheckerboard="0"
     inkscape:deskcolor="#d1d1d1"
     inkscape:zoom="4.072"
     inkscape:cx="50.098232"
     inkscape:cy="62.25442"
     inkscape:window-width="1366"
     inkscape:window-height="705"
     inkscape:window-x="-8"
     inkscape:window-y="-8"
     inkscape:window-maximized="1"
     inkscape:current-layer="svg5" /><g
     id="g1"
     style="fill:#ff5555"><path
       d="M 50,5.6 C 27.4,5.6 9.1,23.9 9.1,46.5 9.1,60.6 16.3,73 27.1,80.4 33.7,84.8 50,95 50,95 50,95 66.3,84.7 72.8,80.3 83.7,73 90.8,60.5 90.8,46.4 90.8,23.9 72.5,5.6 50,5.6 Z M 70.6,77 C 65.6,80.4 54.6,87.3 50,90.2 45.4,87.3 34.4,80.3 29.4,77 19.2,70.1 13.1,58.7 13.1,46.4 13.1,26.2 29.7,9.6 50,9.6 c 20.3,0 36.8,16.5 36.8,36.8 0,12.3 -6.1,23.8 -16.2,30.6 z"
       id="path1"
       style="fill:#ff5555" /></g><g
     id="g2"
     style="fill:#808080"><path
       d="M 50,22 C 36.5,22 25.5,33 25.5,46.5 25.5,60 36.4,71 50,71 63.5,71 74.5,60 74.5,46.5 74.5,33 63.5,22 50,22 Z m 0,45 C 38.7,67 29.5,57.8 29.5,46.5 29.5,35.2 38.7,26 50,26 61.3,26 70.5,35.2 70.5,46.5 70.5,57.8 61.3,67 50,67 Z"
       id="path2"
       style="fill:#808080" /></g><g
     id="g3"
     style="fill:#cccccc"><path
       d="m 59.8,35 -0.7,0.1 c -0.1,0 -0.2,0 -0.3,0.1 l -6.4,5.3 -12.1,-1.6 c -0.1,0 -0.3,0 -0.4,0.1 l -1.2,1.2 c -0.2,0.2 -0.2,0.6 0.1,0.8 l 9.1,4 -4.7,5.8 -3.5,-0.7 c -0.2,0 -0.3,0 -0.4,0.1 L 39,50.5 c -0.2,0.2 -0.2,0.6 0.1,0.8 l 3.3,1.6 1.6,3.3 c 0.1,0.3 0.5,0.4 0.8,0.1 L 45.1,56 c 0.1,-0.1 0.2,-0.3 0.1,-0.4 l -0.7,-3.6 5.8,-4.7 4,9.1 c 0.1,0.3 0.5,0.4 0.8,0.1 l 1.2,-1.2 c 0.1,-0.1 0.2,-0.3 0.1,-0.4 l -1.6,-12.1 5.3,-6.4 c 0.1,-0.1 0.1,-0.2 0.1,-0.3 l 0.1,-0.7 C 60.3,35.2 60.1,35 59.8,35 Z"
       id="path3"
       style="fill:#cccccc" /></g></svg>
